<svg width="68" height="103" viewBox="0 0 68 103" fill="none" xmlns="http://www.w3.org/2000/svg">
<path d="M31.8821 41.2146C32.594 41.2146 33.1711 41.7917 33.1711 42.5036C33.1711 45.5646 30.681 48.0547 27.6201 48.0547C24.5592 48.0547 22.069 45.5646 22.069 42.5036C22.069 41.7917 22.6462 41.2146 23.3581 41.2146C24.07 41.2146 24.6472 41.7917 24.6472 42.5036C24.6472 44.143 25.9808 45.4766 27.6201 45.4766C29.2594 45.4766 30.593 44.143 30.593 42.5036C30.593 41.7917 31.1702 41.2146 31.8821 41.2146Z" fill="black"/>
<path d="M17.8246 38.9814C17.1127 38.9814 16.5355 38.4043 16.5355 37.6924V35.2859H16.2358C15.5239 35.2859 14.9467 34.7088 14.9467 33.9969C14.9467 33.285 15.5239 32.7078 16.2358 32.7078H17.8246C18.5365 32.7078 19.1136 33.285 19.1136 33.9969V37.6924C19.1136 38.4043 18.5365 38.9814 17.8246 38.9814Z" fill="black"/>
<path d="M37.4156 32.7078H39.0044C39.7163 32.7078 40.2935 33.285 40.2935 33.9969C40.2935 34.7088 39.7163 35.2859 39.0044 35.2859H38.7046V37.6924C38.7046 38.4043 38.1275 38.9814 37.4156 38.9814C36.7037 38.9814 36.1265 38.4043 36.1265 37.6924V33.9969C36.1265 33.285 36.7037 32.7078 37.4156 32.7078Z" fill="black"/>
<path d="M2.72191 69.4012C3.08577 65.6989 5.15411 62.568 8.11019 60.7458C6.38302 60.0335 4.79885 58.9033 3.50291 57.42C0.850021 54.3835 -0.387823 50.2368 0.106833 46.0434L1.12966 37.3694C0.576227 36.2923 0.261693 35.0728 0.261693 33.7808V33.7404C0.261693 31.723 1.04372 29.7816 2.4213 28.3245V19.134C2.4213 16.1683 3.08182 13.3251 4.38412 10.6834C4.69899 10.0449 5.47157 9.78261 6.11026 10.0971C6.74877 10.412 7.01122 11.1848 6.69652 11.8233C5.57039 14.1073 4.99943 16.5669 4.99943 19.1338V27.5715C5.53361 27.5715 29.2115 27.5715 29.745 27.5715C36.6769 27.5715 42.3154 21.9304 42.3154 15.0011V14.0872C42.3154 7.75603 37.1674 2.5783 30.8065 2.5783H21.5551C17.1878 2.5783 13.0672 4.26387 9.95252 7.32428C9.4448 7.82341 8.62857 7.81636 8.12962 7.3083C7.63066 6.80058 7.63788 5.98434 8.1456 5.48539C11.7453 1.94803 16.5077 0 21.5551 0H30.8065C36.2697 0 41.0131 3.12812 43.3487 7.68556C48.0672 9.93919 51.3866 14.7933 52.0562 20.4731L52.9974 28.4541C54.265 29.8533 55.0383 31.708 55.0383 33.7403V33.7807C55.0383 35.1491 54.6871 36.4368 54.0711 37.5595L55.0716 46.0434C55.5663 50.2367 54.3284 54.3833 51.6755 57.42C50.3743 58.9096 48.7825 60.0433 47.0469 60.7552C50.3237 62.7839 52.5122 66.4101 52.5122 70.539V76.3965C52.5122 77.1085 51.9351 77.6856 51.2231 77.6856C50.5112 77.6856 49.9341 77.1085 49.9341 76.3965V70.539C49.9341 65.6196 45.9318 61.6174 41.0124 61.6174H37.1875C37.0027 66.9769 32.4393 71.1427 27.1008 70.874C27.0465 70.8713 26.9929 70.8656 26.9388 70.862C22.0202 70.5318 18.1594 66.5046 17.9909 61.6174H14.166C9.55429 61.6174 5.73746 65.0726 5.28749 69.6548V69.6556C5.25879 69.9473 5.24435 70.2446 5.24435 70.5392V85.4219H49.9341V82.412C49.9341 81.7001 50.5112 81.1229 51.2231 81.1229C51.9351 81.1229 52.5122 81.7001 52.5122 82.412V86.7109C52.5122 87.4228 51.9351 88 51.2231 88H3.95529C3.24338 88 2.66623 87.4228 2.66623 86.7109V70.5389C2.66623 70.1606 2.68479 69.7788 2.72157 69.4038C2.72174 69.403 2.72191 69.4019 2.72191 69.4012V69.4012ZM4.2406 30.1496C1.48115 33.1531 2.9988 38.0258 6.95141 38.9467C6.8421 37.6425 6.87682 30.3222 6.87819 30.1496H4.2406ZM9.4589 30.1496C9.37691 38.3895 9.50324 38.95 9.6911 40.1122C11.0644 48.5719 18.311 55.0851 27.0986 55.3169C36.5821 55.56 44.1966 48.7912 45.604 40.1081C45.8993 38.2779 45.8388 37.8318 45.8388 30.6273C45.8199 28.7946 45.768 28.6906 45.5922 27.3109C45.246 25.2216 44.5381 23.2232 43.4884 21.3806C41.1889 26.3383 36.3426 29.7174 30.8159 30.1111C30.0035 30.1682 31.3372 30.1496 9.4589 30.1496V30.1496ZM48.3461 28.5804C48.4455 29.8853 48.4671 37.4495 48.3448 38.9273C53.9171 37.6772 53.6999 29.7261 48.3461 28.5804ZM49.496 20.775C49.0553 17.0385 47.2826 13.7352 44.6692 11.5703C44.8937 12.8243 44.9012 13.8822 44.8951 14.7364C44.8944 14.8304 44.8937 14.9187 44.8937 15.0011C44.8937 16.1191 44.7708 17.2088 44.54 18.2585C46.2044 20.5741 47.3524 23.1586 47.9451 25.8983C48.6559 25.9691 49.3384 26.1363 49.9812 26.384C50.0427 26.4069 50.1051 26.4284 50.1656 26.4528L49.496 20.775ZM42.7313 59.0391C45.3409 59.0391 47.8934 57.8306 49.734 55.7236C51.8764 53.2713 52.9147 49.7652 52.5113 46.3452L51.7828 40.1679C50.7058 40.9422 49.3741 41.4808 47.9393 41.6228C46.6081 47.7125 42.5897 52.8088 37.1933 55.6V59.0391C39.1056 59.0391 40.8001 59.0391 42.7313 59.0391ZM34.6152 61.2824C34.6152 59.3655 34.6152 59.597 34.6152 56.7229C30.0439 58.344 24.9342 58.2615 20.5634 56.682V61.2824C20.5634 65.1564 23.7152 68.3081 27.5893 68.3081C31.4634 68.3081 34.6152 65.1564 34.6152 61.2824V61.2824ZM17.9853 59.0391V55.5388C12.6472 52.7347 8.67652 47.6685 7.35498 41.6223C5.95402 41.4831 4.5761 40.9575 3.40649 40.0752L2.66708 46.3452C2.26369 49.7654 3.30199 53.2713 5.44442 55.7236C8.63287 59.373 12.2866 59.0391 14.1662 59.0391H17.9853Z" fill="black"/>
<circle cx="51.0894" cy="86.5" r="15.5" fill="white"/>
<path d="M49.8003 92.2995V87.7878H45.2886C44.5766 87.7878 43.9995 87.2107 43.9995 86.4987C43.9995 85.787 44.5766 85.2097 45.2886 85.2097H49.8003V80.698C49.8003 79.9862 50.3773 79.4089 51.0894 79.4089C51.8014 79.4089 52.3784 79.9862 52.3784 80.698V85.2097H56.8901C57.6021 85.2097 58.1792 85.787 58.1792 86.4987C58.1792 87.2107 57.6021 87.7878 56.8901 87.7878H52.3784V92.2995C52.3784 93.0115 51.8014 93.5886 51.0894 93.5886C50.3773 93.5886 49.8003 93.0115 49.8003 92.2995ZM62.7566 74.8327C59.6402 71.7163 55.4966 70 51.0894 70C46.6821 70 42.5385 71.7163 39.4221 74.8327C36.3057 77.9491 34.5894 82.0928 34.5894 86.5C34.5894 90.9072 36.3057 95.0509 39.4221 98.1673C42.5385 101.284 46.6821 103 51.0894 103C54.1066 103 57.0588 102.178 59.6269 100.622C60.2359 100.253 60.4305 99.4606 60.0617 98.8518C59.6928 98.2428 58.9 98.0482 58.2912 98.417C56.126 99.7285 53.6355 100.422 51.0894 100.422C43.4129 100.422 37.1675 94.1765 37.1675 86.5C37.1675 78.8235 43.4129 72.5781 51.0894 72.5781C58.7658 72.5781 65.0112 78.8235 65.0112 86.5C65.0112 89.245 64.195 91.9168 62.6506 94.2271C62.2549 94.8187 62.414 95.6194 63.0059 96.0151C63.5975 96.4107 64.3982 96.2516 64.794 95.6599C66.6226 92.9244 67.5894 89.7569 67.5894 86.5C67.5894 82.0928 65.873 77.9491 62.7566 74.8327Z" fill="#04A8A8"/>
</svg>
