<svg width="76" height="76" viewBox="0 0 76 76" fill="none" xmlns="http://www.w3.org/2000/svg">
<g clip-path="url(#clip0_356_209)">
<path d="M72.8558 16.8536C69.8797 15.1347 66.0589 16.1589 64.34 19.1351L58.8092 28.7167V20.7812C58.8092 19.9619 58.1442 19.2969 57.3248 19.2969C56.504 19.2969 55.8405 19.9619 55.8405 20.7812V33.8438V33.8571L39.5376 62.0944C39.4337 62.2725 39.3698 62.4714 39.3476 62.6777L38.2313 73.0312H2.9967V2.96875H55.8405V7.42188C55.8405 8.24125 56.504 8.90625 57.3248 8.90625C58.1442 8.90625 58.8092 8.24125 58.8092 7.42188V1.48438C58.8092 0.665 58.1442 0 57.3248 0H1.51233C0.69147 0 0.0279541 0.665 0.0279541 1.48438V74.5156C0.0279541 75.335 0.69147 76 1.51233 76H57.3248C58.1442 76 58.8092 75.335 58.8092 74.5156V53.6527L75.1388 25.3695C76.8562 22.3933 75.8335 18.5725 72.8558 16.8536ZM42.0551 65.262L46.3345 67.732L41.4005 71.3361L42.0551 65.262ZM55.8405 73.0312H44.1139L49.9267 68.7845C50.093 68.6627 50.2325 68.5069 50.3364 68.3288L55.8405 58.7961V73.0312ZM48.5076 65.5589L42.8507 62.2933L64.5775 24.6629L70.233 27.9285L48.5076 65.5589ZM72.5664 23.8851L71.7173 25.3576L66.0619 22.092L66.9109 20.6195C67.8105 19.0609 69.8129 18.525 71.3715 19.4245C72.9315 20.3255 73.4674 22.3265 72.5664 23.8851Z" fill="black"/>
<path d="M57.3248 12.6172C56.933 12.6172 56.5515 12.776 56.2754 13.0521C55.9993 13.3282 55.8405 13.7112 55.8405 14.1016C55.8405 14.4934 55.9993 14.8749 56.2754 15.151C56.5515 15.4271 56.9344 15.5859 57.3248 15.5859C57.7152 15.5859 58.0982 15.4271 58.3743 15.151C58.6504 14.8749 58.8092 14.492 58.8092 14.1016C58.8092 13.7112 58.6504 13.3282 58.3743 13.0521C58.0982 12.776 57.7167 12.6172 57.3248 12.6172Z" fill="black"/>
<path d="M44.4108 15.7344H14.4264C13.6055 15.7344 12.942 16.3994 12.942 17.2188C12.942 18.0381 13.6055 18.7031 14.4264 18.7031H44.4108C45.2301 18.7031 45.8951 18.0381 45.8951 17.2188C45.8951 16.3994 45.2301 15.7344 44.4108 15.7344Z" fill="#04A8A8"/>
<path d="M44.4108 24.0469H14.4264C13.6055 24.0469 12.942 24.7119 12.942 25.5312C12.942 26.3506 13.6055 27.0156 14.4264 27.0156H44.4108C45.2301 27.0156 45.8951 26.3506 45.8951 25.5312C45.8951 24.7119 45.2301 24.0469 44.4108 24.0469Z" fill="#04A8A8"/>
<path d="M44.4108 32.3594H33.3893C32.5684 32.3594 31.9049 33.0244 31.9049 33.8438C31.9049 34.6631 32.5684 35.3281 33.3893 35.3281H44.4108C45.2301 35.3281 45.8951 34.6631 45.8951 33.8438C45.8951 33.0244 45.2301 32.3594 44.4108 32.3594Z" fill="#04A8A8"/>
<path d="M45.8951 42.1562C45.8951 41.3369 45.2301 40.6719 44.4108 40.6719H14.4264C13.6055 40.6719 12.942 41.3369 12.942 42.1562C12.942 42.9756 13.6055 43.6406 14.4264 43.6406H44.4108C45.2301 43.6406 45.8951 42.9756 45.8951 42.1562Z" fill="#04A8A8"/>
<path d="M39.5123 50.4688C39.5123 49.6494 38.8473 48.9844 38.028 48.9844H28.7506C27.9298 48.9844 27.2662 49.6494 27.2662 50.4688C27.2662 51.2881 27.9298 51.9531 28.7506 51.9531H38.028C38.8473 51.9531 39.5123 51.2881 39.5123 50.4688Z" fill="#04A8A8"/>
<path d="M14.4264 60.2656H27.4889C28.3083 60.2656 28.9733 59.6006 28.9733 58.7812C28.9733 57.9619 28.3083 57.2969 27.4889 57.2969H14.4264C13.6055 57.2969 12.942 57.9619 12.942 58.7812C12.942 59.6006 13.6055 60.2656 14.4264 60.2656V60.2656Z" fill="#04A8A8"/>
<path d="M14.4264 35.3281H24.3212C25.1421 35.3281 25.8056 34.6631 25.8056 33.8438C25.8056 33.0244 25.1421 32.3594 24.3212 32.3594H14.4264C13.6055 32.3594 12.942 33.0244 12.942 33.8438C12.942 34.6631 13.6055 35.3281 14.4264 35.3281V35.3281Z" fill="#04A8A8"/>
<path d="M14.4264 51.9531H22.0709C22.8903 51.9531 23.5553 51.2881 23.5553 50.4688C23.5553 49.6494 22.8903 48.9844 22.0709 48.9844H14.4264C13.6055 48.9844 12.942 49.6494 12.942 50.4688C12.942 51.2881 13.6055 51.9531 14.4264 51.9531V51.9531Z" fill="#04A8A8"/>
</g>
<defs>
<clipPath id="clip0_356_209">
<rect width="76" height="76" fill="white"/>
</clipPath>
</defs>
</svg>
