<svg width="111" height="106" viewBox="0 0 111 106" fill="none" xmlns="http://www.w3.org/2000/svg">
<g clip-path="url(#clip0_356_175)">
<path d="M74.923 60.928C77.6794 60.928 79.9217 58.6855 79.9217 55.9293C79.9217 55.0877 79.2396 54.4058 78.3983 54.4058C77.5569 54.4058 76.8748 55.0877 76.8748 55.9293C76.8748 57.0056 75.9992 57.8811 74.923 57.8811C73.8469 57.8811 72.9712 57.0054 72.9712 55.9293C72.9712 55.0877 72.2891 54.4058 71.4478 54.4058C70.6064 54.4058 69.9243 55.0877 69.9243 55.9293C69.9241 58.6855 72.1666 60.928 74.923 60.928Z" fill="black"/>
<path d="M82.9105 52.3825C83.7519 52.3825 84.434 51.7006 84.434 50.859V49.2671C85.1861 49.1739 85.7685 48.5326 85.7685 47.7553C85.7685 46.9137 85.0864 46.2318 84.2451 46.2318H82.9105C82.0692 46.2318 81.3871 46.9137 81.3871 47.7553V50.859C81.3871 51.7006 82.0692 52.3825 82.9105 52.3825Z" fill="black"/>
<path d="M65.4119 49.2674V50.8592C65.4119 51.7008 66.094 52.3827 66.9354 52.3827C67.7767 52.3827 68.4588 51.7008 68.4588 50.8592V47.7555C68.4588 46.9139 67.7767 46.2321 66.9354 46.2321H65.6008C64.7595 46.2321 64.0774 46.9139 64.0774 47.7555C64.0774 48.5326 64.6598 49.1741 65.4119 49.2674V49.2674Z" fill="black"/>
<path d="M97.692 51.1329C98.1244 50.2178 98.3675 49.1965 98.3675 48.1191C98.3675 46.3261 97.6962 44.6877 96.5935 43.4389C96.7685 43.1909 96.8721 42.889 96.8721 42.5622C96.8721 38.0626 97.0968 35.3941 95.7432 31.5238C95.4653 30.7296 94.5963 30.3101 93.8021 30.5886C93.0079 30.8663 92.5892 31.7354 92.8669 32.5297C93.9733 35.6925 93.8251 37.8865 93.8251 41.0388C91.882 41.0388 86.6472 41.0388 84.4403 41.0388C80.0325 41.0388 76.4463 37.4528 76.4461 33.045C76.4461 32.2034 75.764 31.5216 74.9227 31.5216C74.0813 31.5216 73.3992 32.2034 73.3992 33.045C73.3992 37.4528 69.813 41.0388 65.405 41.0388H58.7856H56.0202V38.2007C56.0202 28.7331 63.7228 21.0306 73.1904 21.0306C73.3056 21.0306 73.3992 21.1242 73.3992 21.2394C73.3992 22.0807 74.0813 22.7626 74.9227 22.7626C75.764 22.7626 76.4461 22.0807 76.4461 21.2394C76.4461 21.1242 76.5397 21.0306 76.6549 21.0306C81.6183 21.0308 86.3371 23.1782 89.6017 26.9222C90.1546 27.5566 91.117 27.622 91.7512 27.0695C92.3853 26.5164 92.4511 25.5542 91.8982 24.92C88.0549 20.5122 82.499 17.9841 76.6551 17.9839C76.0189 17.9839 75.4248 18.1673 74.9229 18.484C74.4209 18.1673 73.8268 17.9839 73.1906 17.9839C62.0429 17.9839 52.9736 27.0532 52.9736 38.2009V42.5624C52.9736 42.889 53.0774 43.1911 53.2523 43.4391C52.7408 44.0182 52.322 44.6806 52.0205 45.4041C51.8375 43.1576 50.7041 41.1846 49.0118 39.894V34.0901C49.0118 22.6631 39.7154 13.3667 28.2884 13.3667C25.4512 13.3667 26.588 13.3177 22.6637 13.6244C17.2504 14.0469 12.4061 16.9437 9.47355 21.4502L4.88577 19.9839C3.93514 19.6792 2.94816 20.3604 2.90022 21.3623C2.87848 21.8213 2.41881 32.0235 4.27903 39.1294C1.74464 40.4006 0 43.0227 0 46.0462C0 49.9694 2.93638 53.2198 6.72689 53.715C7.68097 57.8084 9.93484 61.5241 13.159 64.2799C14.0045 65.0024 14.9065 65.6455 15.8511 66.2106H12.6453C7.37811 66.2106 3.09298 70.496 3.09298 75.763V89.113C3.09298 89.9545 3.77508 90.6364 4.61642 90.6364H7.14716C7.9885 90.6364 8.67059 89.9545 8.67059 89.113C8.67059 88.2714 7.9885 87.5895 7.14716 87.5895H6.13986V75.763C6.13986 72.1758 9.05816 69.2575 12.6453 69.2575H17.0771C17.8342 73.7494 21.8967 77.1268 26.6427 76.8205C30.939 76.5436 34.343 73.3111 35.0269 69.2575H39.4593C43.0465 69.2575 45.965 72.1758 45.965 75.763V87.5895H14.2567C13.4154 87.5895 12.7333 88.2714 12.7333 89.113C12.7333 89.9545 13.4154 90.6364 14.2567 90.6364H47.4886C48.3299 90.6364 49.012 89.9545 49.012 89.113V75.763C49.012 74.4945 48.7614 73.2839 48.3104 72.1754H50.7581C52.2907 72.1754 53.7524 71.8693 55.0883 71.318C54.1485 72.7714 53.6004 74.5008 53.6004 76.3565V89.113C53.6004 89.9545 54.2825 90.6364 55.1239 90.6364H94.8246C95.666 90.6364 96.3481 89.9545 96.3481 89.113V76.3565C96.3481 74.5237 95.8135 72.8142 94.8949 71.372C96.1937 71.8884 97.6077 72.1754 99.0884 72.1754H102.477C103.318 72.1754 104 71.4935 104 70.652V61.3216C104 56.9816 101.485 53.0357 97.692 51.1329ZM65.4054 44.0859C69.4545 44.0859 73.0015 41.8954 74.9231 38.6366C76.8448 41.8954 80.3916 44.0859 84.4407 44.0859H91.2874C93.5114 44.0859 95.3207 45.8951 95.3207 48.1191C95.3207 49.2066 94.8862 50.193 94.1842 50.919C93.382 51.7477 92.2697 52.1944 91.1257 52.1479C90.3553 52.1123 89.6856 52.6602 89.5588 53.4186C88.3998 60.3478 82.4056 65.7922 74.9231 65.7922C69.6365 65.7922 64.6984 62.9974 62.0413 58.3495C62.0165 58.2867 61.9881 58.2252 61.955 58.1659C61.3346 57.0532 60.8642 55.8777 60.5501 54.6581C60.5438 54.6337 60.5388 54.6089 60.5327 54.5846C60.4461 54.2409 60.3639 53.8763 60.2873 53.4184C60.1608 52.6618 59.4882 52.1127 58.7204 52.1477C56.4405 52.2403 54.5255 50.401 54.5255 48.1187C54.5255 45.8947 56.3349 44.0854 58.5587 44.0854C58.6142 44.0854 58.6694 44.0879 58.7245 44.0899C58.7895 44.0926 58.8534 44.0909 58.9168 44.0854L65.4054 44.0859ZM74.9481 75.2475C72.0495 75.2475 69.6912 72.8892 69.6912 69.9904V68.5722V68.0601C71.4202 68.5907 73.2257 68.8395 74.9229 68.8395C76.6756 68.8395 78.5009 68.5734 80.2047 68.0449V69.9906C80.2047 72.7988 77.9915 75.0998 75.218 75.2408C75.1286 75.2452 75.0386 75.2475 74.9481 75.2475ZM62.9062 67.0487H62.9044C61.8601 67.0491 60.8567 67.225 59.9188 67.5439C60.8603 66.2712 61.5422 64.7961 61.8883 63.1969C62.3352 63.6728 62.8077 64.1276 63.3078 64.555C64.3374 65.4349 65.458 66.1877 66.6443 66.8068V67.0487H62.9062ZM83.2518 66.7818C84.9763 65.8749 86.5542 64.6917 87.9576 63.1971C88.2997 64.7772 88.9702 66.2358 89.8946 67.4982C88.1552 66.9364 87.2477 67.0487 83.252 67.0487L83.2518 66.7818ZM5.89388 23.5046L9.69414 24.7191C10.3866 24.9399 11.1394 24.6415 11.4912 24.0049C13.8253 19.7824 18.0907 17.0371 22.9009 16.6619C26.7308 16.3629 25.5696 16.4133 28.2884 16.4133C38.0352 16.4133 45.965 24.3429 45.965 34.0899V38.4906C44.6337 38.204 45.0548 38.3181 24.1613 38.3181C22.6423 38.3181 21.1874 37.9805 19.8764 37.3709C16.9922 36.0299 14.805 33.3724 14.1643 30.0977C13.9195 28.8464 12.3795 28.47 11.5568 29.3493C9.35919 31.6987 7.82275 34.4817 6.98852 37.3699C5.941 32.6314 5.8563 26.5846 5.89388 23.5046ZM9.48939 51.9992C9.36609 51.2625 8.72848 50.727 7.98748 50.727C7.96697 50.727 7.94625 50.7274 7.92553 50.7282C7.86195 50.7309 7.79838 50.7333 7.73419 50.7333C5.14963 50.7333 3.04688 48.6308 3.04688 46.0462C3.04688 43.5051 5.07244 41.4511 7.56397 41.3632C7.57006 41.363 7.57636 41.363 7.58245 41.3628C7.6958 41.3593 7.80914 41.3593 7.92188 41.364C7.92431 41.364 7.92675 41.364 7.92919 41.3642C7.93386 41.3644 7.93853 41.3638 7.9432 41.364C8.70309 41.3875 9.36366 40.8446 9.48939 40.0932C9.83328 38.037 10.5554 36.0809 11.6145 34.3076C11.7658 34.0543 11.924 33.8047 12.089 33.5591C14.186 38.2166 18.8748 41.3652 24.1613 41.3652H44.5337H44.5348C45.2743 41.3993 46.0446 41.6226 46.7086 42.018C46.7204 42.0252 46.733 42.0298 46.745 42.0365C48.1022 42.8574 49.0017 44.3442 49.0017 46.046C49.0017 48.6306 46.8989 50.7331 44.3144 50.7331C44.2502 50.7331 44.1864 50.7305 44.1228 50.728C43.3564 50.7006 42.6857 51.2419 42.559 51.999C41.1783 60.2548 34.0742 65.9783 26.0242 65.9783C17.9122 65.9785 10.8603 60.1961 9.48939 51.9992ZM25.7467 73.787C22.7656 73.6379 20.335 71.319 20.03 68.3619C20.0277 68.3398 20.0265 68.3172 20.0245 68.2949C20.0184 68.2291 20.0133 68.1629 20.0094 68.0964C22.0157 68.7367 24.1077 69.0251 26.0246 69.0251C27.9776 69.0251 30.0865 68.7265 32.0976 68.0776C31.9134 71.3954 29.069 73.9529 25.7467 73.787ZM39.4595 66.2106H36.1979C37.1424 65.6455 38.0445 65.0024 38.8899 64.2799C42.1139 61.5243 44.368 57.8086 45.3219 53.715C48.1536 53.3451 50.5083 51.4372 51.5182 48.8599C51.6023 49.6651 51.8219 50.4305 52.1538 51.1329C48.361 53.0357 45.8457 56.9814 45.8457 61.3216V68.6664C44.1525 67.1409 41.9128 66.2106 39.4595 66.2106ZM48.8928 69.1285V61.3216C48.8928 57.9317 50.987 54.8683 54.0772 53.5998C55.0891 54.4261 56.3077 54.9453 57.526 55.1243C57.8778 56.5939 58.4317 58.0294 59.1006 59.2946V60.7852C59.1006 65.3855 55.3581 69.1283 50.7577 69.1283L48.8928 69.1285ZM93.301 87.5895H56.6471V76.3565C56.6471 72.9042 59.4559 70.0956 62.9082 70.0956H66.6451C66.7012 74.5942 70.379 78.2943 74.9481 78.2943C79.4649 78.2943 83.1941 74.6511 83.2512 70.0956H87.0399C90.4922 70.0956 93.3008 72.9042 93.3008 76.3565L93.301 87.5895ZM100.953 69.1285H99.088C94.4877 69.1285 90.7451 65.3857 90.7451 60.7854V59.2948C91.4239 58.0107 91.9724 56.5754 92.3197 55.1245C93.4643 54.9565 94.6185 54.4913 95.6223 53.7115C95.6709 53.674 95.721 53.639 95.7686 53.6002C98.8589 54.8685 100.953 57.9317 100.953 61.3216V69.1285Z" fill="black"/>
<path d="M26.0243 60.2095C29.0062 60.2095 31.4321 57.7836 31.4321 54.8017C31.4321 53.9601 30.75 53.2783 29.9087 53.2783C29.0673 53.2783 28.3853 53.9601 28.3853 54.8017C28.3853 56.1035 27.3262 57.1626 26.0243 57.1626C24.7225 57.1626 23.6632 56.1035 23.6632 54.8017C23.6632 53.9601 22.9811 53.2783 22.1398 53.2783C21.2984 53.2783 20.6163 53.9601 20.6163 54.8017C20.6165 57.7834 23.0425 60.2095 26.0243 60.2095Z" fill="black"/>
<path d="M17.0967 44.1927C16.2553 44.1927 15.5732 44.8746 15.5732 45.7161V49.0843C15.5732 49.9259 16.2553 50.6078 17.0967 50.6078C17.938 50.6078 18.6201 49.9259 18.6201 49.0843V45.7161C18.6201 44.8748 17.938 44.1927 17.0967 44.1927Z" fill="black"/>
<path d="M34.9521 50.6078C35.7935 50.6078 36.4756 49.9259 36.4756 49.0843V45.7161C36.4756 44.8746 35.7935 44.1927 34.9521 44.1927C34.1108 44.1927 33.4287 44.8746 33.4287 45.7161V49.0843C33.4287 49.9259 34.1108 50.6078 34.9521 50.6078Z" fill="black"/>
</g>
<g clip-path="url(#clip1_356_175)">
<circle cx="94.5" cy="89.5" r="15.5" fill="white"/>
<path d="M93.2109 95.2995V90.7878H88.6992C87.9872 90.7878 87.4102 90.2107 87.4102 89.4987C87.4102 88.787 87.9872 88.2097 88.6992 88.2097H93.2109V83.698C93.2109 82.9862 93.788 82.4089 94.5 82.4089C95.212 82.4089 95.7891 82.9862 95.7891 83.698V88.2097H100.301C101.013 88.2097 101.59 88.787 101.59 89.4987C101.59 90.2107 101.013 90.7878 100.301 90.7878H95.7891V95.2995C95.7891 96.0115 95.212 96.5886 94.5 96.5886C93.788 96.5886 93.2109 96.0115 93.2109 95.2995ZM106.167 77.8327C103.051 74.7163 98.9072 73 94.5 73C90.0928 73 85.9491 74.7163 82.8327 77.8327C79.7163 80.9491 78 85.0928 78 89.5C78 93.9072 79.7163 98.0509 82.8327 101.167C85.9491 104.284 90.0928 106 94.5 106C97.5172 106 100.469 105.178 103.038 103.622C103.647 103.253 103.841 102.461 103.472 101.852C103.103 101.243 102.311 101.048 101.702 101.417C99.5367 102.729 97.0462 103.422 94.5 103.422C86.8235 103.422 80.5781 97.1765 80.5781 89.5C80.5781 81.8235 86.8235 75.5781 94.5 75.5781C102.176 75.5781 108.422 81.8235 108.422 89.5C108.422 92.245 107.606 94.9168 106.061 97.2271C105.665 97.8187 105.825 98.6194 106.417 99.0151C107.008 99.4107 107.809 99.2516 108.205 98.6599C110.033 95.9244 111 92.7569 111 89.5C111 85.0928 109.284 80.9491 106.167 77.8327Z" fill="#04A8A8"/>
</g>
<defs>
<clipPath id="clip0_356_175">
<rect width="104" height="104" fill="white"/>
</clipPath>
<clipPath id="clip1_356_175">
<rect width="33" height="33" fill="white" transform="translate(78 73)"/>
</clipPath>
</defs>
</svg>
