<?xml version="1.0" encoding="utf-8"?>
<svg viewBox="0 0 311 98" fill="none" xmlns="http://www.w3.org/2000/svg">
  <path d="M31.5325 91.3472C36.4627 95.3632 43.3322 97.3733 52.1411 97.3774C59.261 97.3774 64.2677 96.2047 67.1613 93.8593C67.5568 93.5412 67.9302 93.1968 68.2789 92.8286C68.4528 92.6557 68.6266 92.4767 68.7881 92.2916C68.8252 92.2493 68.8584 92.2039 68.8874 92.1558C69.912 90.8984 70.5571 89.3781 70.748 87.7711C70.9388 86.1642 70.6676 84.5364 69.9657 83.0764C69.2638 81.6164 68.16 80.384 66.7823 79.5222C65.4046 78.6603 63.8093 78.2042 62.1814 78.2068C62.014 78.1944 61.8459 78.1944 61.6785 78.2068C61.3474 78.2194 61.0175 78.2545 60.6912 78.3117C59.9919 78.3844 59.2894 78.4215 58.5863 78.4229C55.2333 78.4229 52.6109 77.7748 50.7191 76.4786C48.8564 75.1763 47.8877 73.0593 47.8877 70.1461V39.8719H62.7589C64.8767 39.8739 66.9314 39.1556 68.5817 37.8363C70.232 36.517 71.3784 34.6762 71.8306 32.6196C71.9186 31.9174 71.9601 31.2102 71.9548 30.5026C71.9555 29.9997 71.9307 29.497 71.8803 28.9966C71.4967 26.8705 70.3725 24.9464 68.7047 23.5617C67.0369 22.1769 64.9319 21.42 62.7589 21.4234H47.8877V11.7949C47.8882 9.02931 46.9109 6.35146 45.1267 4.22935C43.3426 2.10723 40.8649 0.675803 38.1268 0.185198C38.1153 0.179247 38.1025 0.176142 38.0895 0.176142C38.0765 0.176142 38.0637 0.179247 38.0522 0.185198C37.3826 0.0612805 36.7029 -0.00070267 36.0218 3.70608e-05C35.7486 3.70608e-05 35.463 3.70608e-05 35.196 3.70608e-05C32.2034 0.215069 29.4034 1.5473 27.3579 3.72931C25.3125 5.91132 24.1731 8.78162 24.1683 11.7641V71.7385C24.1683 80.7991 26.6231 87.3354 31.5325 91.3472Z" style="fill: rgb(4, 168, 168);"/>
  <path d="M95.7695 89.8546C99.2834 92.5603 103.33 94.5012 107.648 95.5515C112.689 96.8028 117.87 97.4085 123.065 97.3538C128.568 97.4049 134.057 96.7998 139.414 95.5515C143.793 94.5769 147.986 92.9098 151.833 90.6138C156.134 88.0256 158.284 84.2751 158.284 79.3621V30.6024C158.285 27.915 157.375 25.3057 155.703 23.1943C154.03 21.0829 151.692 19.5921 149.064 18.9618V18.9618C148.154 18.7389 147.219 18.629 146.282 18.6347C145.805 18.6334 145.328 18.6601 144.854 18.7149V18.7149C141.939 19.0774 139.258 20.4855 137.314 22.6745C135.371 24.8634 134.298 27.6827 134.298 30.6024V76.3994C132.971 77.0616 131.568 77.5591 130.119 77.8808C127.881 78.3993 125.587 78.6377 123.289 78.5905C118.889 78.5905 115.484 77.5742 113.075 75.5415C110.666 73.5088 109.457 70.1492 109.448 65.4625V30.6024C109.45 27.8837 108.519 25.2457 106.811 23.123C105.102 21.0003 102.716 19.5196 100.048 18.9248C99.1864 18.7275 98.305 18.6301 97.4212 18.6347C96.9316 18.6334 96.4423 18.6602 95.9558 18.7149C93.0407 19.0762 90.3588 20.4838 88.4148 22.6731C86.4708 24.8624 85.3987 27.6823 85.4 30.6024V65.6168C85.4 71.2375 86.3169 76.0312 88.1507 79.9978C89.8695 83.8366 92.4808 87.2148 95.7695 89.8546V89.8546Z" style="fill: rgb(4, 168, 168);"/>
  <path d="M10.2142 40.993C15.8554 40.993 20.4285 36.4473 20.4285 30.8399C20.4285 25.2325 15.8554 20.6868 10.2142 20.6868C4.57307 20.6868 0 25.2325 0 30.8399C0 36.4473 4.57307 40.993 10.2142 40.993Z" style="fill: rgb(4, 168, 168);"/>
  <path d="M214.249 78.2068C214.082 78.1945 213.914 78.1945 213.747 78.2068C213.421 78.2686 213.091 78.3037 212.759 78.3118C212.06 78.3844 211.357 78.4215 210.654 78.4229C207.301 78.4229 204.675 77.7748 202.793 76.4786C200.912 75.1825 199.956 73.0593 199.956 70.1461V39.8719H214.858C216.975 39.8725 219.028 39.1536 220.677 37.8344C222.326 36.5152 223.472 34.6752 223.924 32.6196C224.012 31.9174 224.053 31.2102 224.048 30.5026C224.048 29.9997 224.024 29.497 223.973 28.9966C223.59 26.8715 222.467 24.9482 220.8 23.5636C219.133 22.179 217.03 21.4214 214.858 21.4234H199.956V11.7949C199.956 9.02931 198.979 6.35146 197.195 4.22935C195.411 2.10723 192.933 0.675803 190.195 0.185198C190.183 0.179247 190.171 0.176142 190.158 0.176142C190.145 0.176142 190.132 0.179247 190.12 0.185198C189.451 0.0612805 188.771 -0.00070267 188.09 3.70608e-05C187.817 3.70608e-05 187.537 3.70608e-05 187.264 3.70608e-05C184.264 0.209342 181.455 1.54158 179.404 3.72815C177.353 5.91472 176.212 8.79297 176.212 11.7826V71.757C176.212 80.8094 178.677 87.3457 183.607 91.3658C188.537 95.3859 195.413 97.3897 204.234 97.3774C211.356 97.3774 216.373 96.1985 219.254 93.8593C219.652 93.5412 220.027 93.1969 220.378 92.8286C220.546 92.6557 220.72 92.4767 220.881 92.2916C220.918 92.2493 220.951 92.2039 220.98 92.1558C222.005 90.8984 222.65 89.3781 222.841 87.7712C223.032 86.1642 222.76 84.5364 222.059 83.0764C221.357 81.6164 220.253 80.3841 218.875 79.5222C217.497 78.6603 215.902 78.2043 214.274 78.2068H214.249Z" style="fill: rgb(4, 168, 168);"/>
  <path d="M301.149 18.9718C300.236 18.7493 299.3 18.6394 298.361 18.6447C297.884 18.6434 297.407 18.6702 296.933 18.7249V18.7249C294.007 19.072 291.31 20.4725 289.353 22.6617C287.395 24.851 286.312 27.6772 286.309 30.6062V76.4033C284.982 77.0654 283.579 77.5629 282.13 77.8846C279.892 78.4034 277.597 78.6419 275.3 78.5944C270.899 78.5944 267.495 77.578 265.085 75.5454C262.676 73.5127 261.467 70.153 261.459 65.4663V30.6062C261.459 27.8878 260.527 25.2505 258.817 23.129C257.107 21.0074 254.721 19.5281 252.052 18.9348C251.191 18.7375 250.309 18.6401 249.426 18.6447C248.936 18.6434 248.447 18.6702 247.96 18.7249C245.046 19.0874 242.365 20.4955 240.421 22.6845C238.477 24.8734 237.404 27.6927 237.404 30.6124V65.6268C237.404 71.2475 238.321 76.0412 240.155 80.0078C241.897 83.8601 244.536 87.2451 247.855 89.8832C251.369 92.5888 255.416 94.5297 259.733 95.58C264.774 96.8309 269.955 97.4366 275.151 97.3823C280.655 97.4333 286.146 96.8283 291.506 95.58C295.884 94.605 300.077 92.9379 303.924 90.6423C308.229 88.0459 310.378 84.2974 310.369 79.3968V30.6062C310.368 27.9199 309.458 25.312 307.786 23.2019C306.114 21.0917 303.776 19.6018 301.149 18.9718V18.9718Z" style="fill: rgb(4, 168, 168);"/>
</svg>